<svg xmlns="http://www.w3.org/2000/svg" width="1920" height="1080"><path d="M-304,-414L282,-354L1183,-431Z" fill="#48a474" stroke="#48a474" stroke-width="1.51"/><path d="M1732,1534L482,1725L2134,1622Z" fill="#4ea477" stroke="#4ea477" stroke-width="1.51"/><path d="M-304,-414L1183,-431L2456,-511Z" fill="#4aa877" stroke="#4aa877" stroke-width="1.51"/><path d="M1401,-365L2089,-294L2456,-511Z" fill="#489f71" stroke="#489f71" stroke-width="1.51"/><path d="M1183,-431L1401,-365L2456,-511Z" fill="#449b6e" stroke="#449b6e" stroke-width="1.51"/><path d="M2089,-294L2426,-93L2456,-511Z" fill="#4ea779" stroke="#4ea779" stroke-width="1.51"/><path d="M2134,1622L482,1725L2506,1716Z" fill="#4ca075" stroke="#4ca075" stroke-width="1.51"/><path d="M2348,1332L2134,1622L2506,1716Z" fill="#54aa7e" stroke="#54aa7e" stroke-width="1.51"/><path d="M2433,886L2348,1332L2506,1716Z" fill="#4fa478" stroke="#4fa478" stroke-width="1.51"/><path d="M2426,-93L1992,36L2552,304Z" fill="#4ea578" stroke="#4ea578" stroke-width="1.51"/><path d="M1992,36L1886,147L2552,304Z" fill="#4ba275" stroke="#4ba275" stroke-width="1.51"/><path d="M1773,766L2433,886L2552,304Z" fill="#4ea779" stroke="#4ea779" stroke-width="1.51"/><path d="M1886,147L1773,766L2552,304Z" fill="#4ba375" stroke="#4ba375" stroke-width="1.51"/><path d="M2456,-511L2426,-93L2552,304Z" fill="#51a87a" stroke="#51a87a" stroke-width="1.51"/><path d="M2433,886L2506,1716L2552,304Z" fill="#4ea578" stroke="#4ea578" stroke-width="1.51"/><path d="M1855,1219L2348,1332L2433,886Z" fill="#46986d" stroke="#46986d" stroke-width="1.51"/><path d="M1773,766L1855,1219L2433,886Z" fill="#45986d" stroke="#45986d" stroke-width="1.51"/><path d="M2089,-294L1992,36L2426,-93Z" fill="#4aa173" stroke="#4aa173" stroke-width="1.51"/><path d="M1855,1219L2134,1622L2348,1332Z" fill="#4b9e73" stroke="#4b9e73" stroke-width="1.51"/><path d="M796,1484L482,1725L1180,1390Z" fill="#50aa7b" stroke="#50aa7b" stroke-width="1.51"/><path d="M1180,1390L482,1725L1732,1534Z" fill="#4fa87a" stroke="#4fa87a" stroke-width="1.51"/><path d="M1855,1219L1732,1534L2134,1622Z" fill="#489b70" stroke="#489b70" stroke-width="1.51"/><path d="M1703,-7L1992,36L2089,-294Z" fill="#45996d" stroke="#45996d" stroke-width="1.51"/><path d="M1401,-365L1703,-7L2089,-294Z" fill="#42976b" stroke="#42976b" stroke-width="1.51"/><path d="M1472,156L1773,766L1886,147Z" fill="#449b6e" stroke="#449b6e" stroke-width="1.51"/><path d="M1703,-7L1886,147L1992,36Z" fill="#44996d" stroke="#44996d" stroke-width="1.51"/><path d="M1773,766L1462,892L1855,1219Z" fill="#409267" stroke="#409267" stroke-width="1.51"/><path d="M1462,892L1484,1185L1855,1219Z" fill="#3f9066" stroke="#3f9066" stroke-width="1.51"/><path d="M1703,-7L1472,156L1886,147Z" fill="#42986b" stroke="#42986b" stroke-width="1.51"/><path d="M1472,156L1190,701L1773,766Z" fill="#48a374" stroke="#48a374" stroke-width="1.51"/><path d="M1484,1185L1732,1534L1855,1219Z" fill="#429369" stroke="#429369" stroke-width="1.51"/><path d="M1190,701L1462,892L1773,766Z" fill="#449c6f" stroke="#449c6f" stroke-width="1.51"/><path d="M1484,1185L1180,1390L1732,1534Z" fill="#479b6e" stroke="#479b6e" stroke-width="1.51"/><path d="M1097,350L1190,701L1472,156Z" fill="#49a676" stroke="#49a676" stroke-width="1.51"/><path d="M1401,-365L1472,156L1703,-7Z" fill="#43996c" stroke="#43996c" stroke-width="1.51"/><path d="M282,-354L818,-270L1183,-431Z" fill="#4aa877" stroke="#4aa877" stroke-width="1.51"/><path d="M1401,-365L1120,-75L1472,156Z" fill="#469e70" stroke="#469e70" stroke-width="1.51"/><path d="M1462,892L1182,1011L1484,1185Z" fill="#42976b" stroke="#42976b" stroke-width="1.51"/><path d="M1182,1011L1180,1390L1484,1185Z" fill="#43986c" stroke="#43986c" stroke-width="1.51"/><path d="M1120,-75L1097,350L1472,156Z" fill="#48a373" stroke="#48a373" stroke-width="1.51"/><path d="M1190,701L1182,1011L1462,892Z" fill="#459e70" stroke="#459e70" stroke-width="1.51"/><path d="M1183,-431L1120,-75L1401,-365Z" fill="#48a373" stroke="#48a373" stroke-width="1.51"/><path d="M717,165L1097,350L1120,-75Z" fill="#4aa877" stroke="#4aa877" stroke-width="1.51"/><path d="M651,1168L796,1484L1180,1390Z" fill="#4aa475" stroke="#4aa475" stroke-width="1.51"/><path d="M651,1168L1180,1390L1182,1011Z" fill="#469e70" stroke="#469e70" stroke-width="1.51"/><path d="M876,875L651,1168L1182,1011Z" fill="#46a071" stroke="#46a071" stroke-width="1.51"/><path d="M818,-270L1120,-75L1183,-431Z" fill="#49a776" stroke="#49a776" stroke-width="1.51"/><path d="M876,875L1182,1011L1190,701Z" fill="#47a373" stroke="#47a373" stroke-width="1.51"/><path d="M1097,350L876,875L1190,701Z" fill="#4aaa78" stroke="#4aaa78" stroke-width="1.51"/><path d="M445,632L876,875L1097,350Z" fill="#4bab79" stroke="#4bab79" stroke-width="1.51"/><path d="M717,165L445,632L1097,350Z" fill="#4baa79" stroke="#4baa79" stroke-width="1.51"/><path d="M818,-270L665,-41L1120,-75Z" fill="#49a675" stroke="#49a675" stroke-width="1.51"/><path d="M665,-41L717,165L1120,-75Z" fill="#49a575" stroke="#49a575" stroke-width="1.51"/><path d="M380,368L445,632L717,165Z" fill="#4aa777" stroke="#4aa777" stroke-width="1.51"/><path d="M445,632L651,1168L876,875Z" fill="#47a172" stroke="#47a172" stroke-width="1.51"/><path d="M282,-354L665,-41L818,-270Z" fill="#48a474" stroke="#48a474" stroke-width="1.51"/><path d="M651,1168L482,1725L796,1484Z" fill="#4ca577" stroke="#4ca577" stroke-width="1.51"/><path d="M250,1073L482,1725L651,1168Z" fill="#489e71" stroke="#489e71" stroke-width="1.51"/><path d="M445,632L250,1073L651,1168Z" fill="#459c6f" stroke="#459c6f" stroke-width="1.51"/><path d="M282,-354L381,16L665,-41Z" fill="#47a172" stroke="#47a172" stroke-width="1.51"/><path d="M665,-41L381,16L717,165Z" fill="#47a373" stroke="#47a373" stroke-width="1.51"/><path d="M381,16L380,368L717,165Z" fill="#48a474" stroke="#48a474" stroke-width="1.51"/><path d="M250,1073L-25,1375L482,1725Z" fill="#499f72" stroke="#499f72" stroke-width="1.51"/><path d="M-304,-414L-100,-293L282,-354Z" fill="#48a373" stroke="#48a373" stroke-width="1.51"/><path d="M8,944L250,1073L445,632Z" fill="#459d6f" stroke="#459d6f" stroke-width="1.51"/><path d="M-25,1375L-535,1580L482,1725Z" fill="#4ea577" stroke="#4ea577" stroke-width="1.51"/><path d="M380,368L-101,541L445,632Z" fill="#49a675" stroke="#49a675" stroke-width="1.51"/><path d="M-101,541L8,944L445,632Z" fill="#47a172" stroke="#47a172" stroke-width="1.51"/><path d="M-138,171L-101,541L380,368Z" fill="#48a574" stroke="#48a574" stroke-width="1.51"/><path d="M282,-354L-100,-293L381,16Z" fill="#469f70" stroke="#469f70" stroke-width="1.51"/><path d="M-100,-293L-188,-61L381,16Z" fill="#469f70" stroke="#469f70" stroke-width="1.51"/><path d="M-188,-61L-138,171L381,16Z" fill="#46a071" stroke="#46a071" stroke-width="1.51"/><path d="M-138,171L380,368L381,16Z" fill="#46a172" stroke="#46a172" stroke-width="1.51"/><path d="M8,944L-25,1375L250,1073Z" fill="#419669" stroke="#419669" stroke-width="1.51"/><path d="M-138,171L-339,318L-101,541Z" fill="#4aa776" stroke="#4aa776" stroke-width="1.51"/><path d="M-406,1290L-535,1580L-25,1375Z" fill="#4ba376" stroke="#4ba376" stroke-width="1.51"/><path d="M-283,927L-406,1290L-25,1375Z" fill="#449b6e" stroke="#449b6e" stroke-width="1.51"/><path d="M-283,927L-25,1375L8,944Z" fill="#43996c" stroke="#43996c" stroke-width="1.51"/><path d="M-101,541L-283,927L8,944Z" fill="#47a172" stroke="#47a172" stroke-width="1.51"/><path d="M-339,318L-283,927L-101,541Z" fill="#4aa977" stroke="#4aa977" stroke-width="1.51"/><path d="M-304,-414L-188,-61L-100,-293Z" fill="#48a474" stroke="#48a474" stroke-width="1.51"/><path d="M-566,23L-339,318L-188,-61Z" fill="#48a574" stroke="#48a574" stroke-width="1.51"/><path d="M-188,-61L-339,318L-138,171Z" fill="#49a474" stroke="#49a474" stroke-width="1.51"/><path d="M-304,-414L-566,23L-188,-61Z" fill="#48a474" stroke="#48a474" stroke-width="1.51"/><path d="M-339,318L-566,23L-283,927Z" fill="#4baa78" stroke="#4baa78" stroke-width="1.51"/><path d="M-566,23L-406,1290L-283,927Z" fill="#49a675" stroke="#49a675" stroke-width="1.51"/><path d="M-566,23L-535,1580L-406,1290Z" fill="#47a172" stroke="#47a172" stroke-width="1.51"/></svg>